<svg width="60" height="60" fill="none" xmlns="http://www.w3.org/2000/svg"><g clip-path="url(#clip0)" fill="#EF2A82"><path d="M47.248 6.71A28.709 28.709 0 0030.04 1.036c-5.692 0-11.348 1.638-15.557 4.45v-4.45a1.035 1.035 0 00-2.07 0v6.507a1.033 1.033 0 001.696.796C18.055 5.06 24.01 3.103 30.04 3.103a26.66 26.66 0 0115.977 5.271 1.032 1.032 0 001.446-.216c.34-.46.244-1.107-.215-1.447zm11.717 5.704h-6.508a1.033 1.033 0 00-.794 1.697c3.277 3.944 5.235 9.9 5.235 15.93 0 5.797-1.823 11.32-5.271 15.976a1.034 1.034 0 101.662 1.231 28.71 28.71 0 005.676-17.208c0-5.692-1.638-11.349-4.45-15.557h4.45a1.035 1.035 0 000-2.07zM46.992 51.522a1.034 1.034 0 00-1.1.141c-3.946 3.277-9.901 5.235-15.931 5.235a26.655 26.655 0 01-15.977-5.271 1.034 1.034 0 10-1.232 1.662 28.71 28.71 0 0017.208 5.677c5.692 0 11.348-1.639 15.557-4.45v4.45a1.035 1.035 0 002.07 0v-6.508c0-.402-.232-.767-.595-.936zM8.338 45.89c-3.277-3.945-5.235-9.9-5.235-15.93a26.66 26.66 0 015.27-15.976 1.034 1.034 0 10-1.662-1.232A28.71 28.71 0 001.035 29.96c0 5.692 1.638 11.348 4.45 15.557h-4.45a1.035 1.035 0 000 2.07h6.507a1.034 1.034 0 00.796-1.696zm22.697-26.237A1.034 1.034 0 0030 18.621h-.002a1.034 1.034 0 00-1.033 1.036l.025 10.345a1.034 1.034 0 001.035 1.032h.002a1.034 1.034 0 001.032-1.036l-.024-10.345z"/><path d="M30.025 28.965h-6.232a1.035 1.035 0 000 2.07h6.232a1.035 1.035 0 000-2.07z"/><path d="M30 8.276C18.022 8.276 8.276 18.02 8.276 30S18.022 51.724 30 51.724c11.98 0 21.724-9.745 21.724-21.724C51.724 18.02 41.98 8.276 30 8.276zm0 41.38c-10.838 0-19.655-8.818-19.655-19.656S19.162 10.345 30 10.345c10.838 0 19.655 8.817 19.655 19.655 0 10.838-8.817 19.655-19.655 19.655z"/><path d="M15.517 28.965h-2.069a1.035 1.035 0 000 2.07h2.07a1.035 1.035 0 000-2.07zm31.035 0h-2.07a1.035 1.035 0 000 2.07h2.07a1.035 1.035 0 000-2.07zM30 43.448c-.571 0-1.035.464-1.035 1.035v2.069a1.035 1.035 0 002.07 0v-2.07c0-.57-.464-1.034-1.035-1.034zm0-31.034c-.571 0-1.035.463-1.035 1.034v2.07a1.035 1.035 0 002.07 0v-2.07c0-.57-.464-1.034-1.035-1.034zm-9.613 27.2a1.033 1.033 0 00-1.463 0l-1.36 1.358a1.035 1.035 0 001.463 1.462l1.36-1.358a1.035 1.035 0 000-1.462zm22.047-22.048a1.033 1.033 0 00-1.462 0l-1.358 1.358a1.033 1.033 0 101.462 1.463l1.358-1.359a1.033 1.033 0 000-1.462zm0 23.406l-1.358-1.359a1.033 1.033 0 10-1.462 1.463l1.358 1.358a1.032 1.032 0 001.462 0 1.033 1.033 0 000-1.462zM20.387 18.924l-1.36-1.358a1.033 1.033 0 10-1.463 1.462l1.36 1.359a1.031 1.031 0 001.463 0 1.033 1.033 0 000-1.463z"/></g><defs><clipPath id="clip0"><path fill="#fff" d="M0 0h60v60H0z"/></clipPath></defs></svg>