<svg width="60" height="60" fill="none" xmlns="http://www.w3.org/2000/svg"><g clip-path="url(#clip0)" fill="#EF2A82"><path d="M19.064 23.391a.998.998 0 00-.825-.543l-8.412-.56a.982.982 0 00-.998.632l-6.064 15.5a.999.999 0 001.53 1.164l5.034-3.775 2.931.586a1 1 0 001.13-.624c1.574-4.122 3.469-7.956 5.63-11.393a1 1 0 00.044-.986zm-7.236 10.877l-2.546-.509a1.007 1.007 0 00-.796.181l-2.578 1.934 4.516-11.543 6.038.402c-1.74 2.945-3.294 6.142-4.634 9.535zm25.885 15.906l-.561-8.413a1.001 1.001 0 00-1.53-.781c-3.438 2.16-7.27 4.055-11.393 5.63a.998.998 0 00-.624 1.129l.586 2.93-3.775 5.033a1 1 0 001.165 1.534l15.5-6.064a1 1 0 00.632-.998zm-13.588 3.917l1.934-2.579a1 1 0 00.18-.796l-.51-2.545a67.529 67.529 0 009.536-4.633l.403 6.036-11.543 4.517zM28.998 30H22.26c-.363 0-.697.198-.874.515L12.93 45.709a1.001 1.001 0 00.874 1.486.986.986 0 00.517-.145l15.195-9.195a1 1 0 00.482-.855v-6a1 1 0 00-1-1zm-1 6.437L16.51 43.39 22.847 32h5.151v4.436z"/><path d="M59.95.964a1.001 1.001 0 00-.914-.914c-.332-.026-33.26-2.325-47.514 35.006a.999.999 0 00.227 1.064l4.755 4.755c.223.223.535.325.848.283.31-.045.583-.233.735-.508L22.85 32h5.147v4.45l-8.701 5.493a1.003 1.003 0 00-.173 1.553l4.755 4.754a.999.999 0 001.063.227C62.275 34.223 59.978 1.295 59.95.964zm-5.246 17.74c-3.509 8.682-11.538 20.484-29.872 27.672l-3.41-3.41 8.11-5.119c.29-.184.466-.503.466-.846v-6a1 1 0 00-1-1h-6.74a1 1 0 00-.876.518l-4.406 8.002-3.353-3.354C26.135 3.247 52.805 1.942 57.99 2.015c.037 2.332-.177 8.997-3.286 16.69zm-37.575 25.46a.997.997 0 00-.902-.392 1 1 0 00-.392-.901c-1.508-1.14-3.454-1.52-5.34-1.041A6.726 6.726 0 006 45.58L.09 58.584a.998.998 0 001.324 1.324l13.006-5.912a6.723 6.723 0 003.749-4.492c.479-1.885.1-3.832-1.04-5.34zm-.898 4.85a4.737 4.737 0 01-2.638 3.163l-10.58 4.809 4.81-10.58a4.734 4.734 0 014.275-2.779 4.22 4.22 0 011.787.392l-.952 1.685a1 1 0 001.363 1.363l1.685-.953c.41.882.503 1.901.25 2.9z"/><path d="M59.95.965a1.001 1.001 0 00-.914-.914c-.39-.031-9.66-.733-20.56 4.289a1 1 0 00-.29 1.614l15.859 15.86a1 1 0 001.616-.289c5.023-10.901 4.32-20.171 4.288-20.56zm-5.522 18.401L40.633 5.571c7.98-3.368 14.969-3.6 17.358-3.56.04 2.39-.185 9.357-3.563 17.355zM44.16 15.839c-3.362-3.363-8.833-3.363-12.195 0-3.363 3.362-3.363 8.833 0 12.196a8.594 8.594 0 006.097 2.522 8.6 8.6 0 006.099-2.522c3.362-3.363 3.362-8.834 0-12.196zM42.748 26.62a6.632 6.632 0 01-9.369 0 6.632 6.632 0 010-9.368 6.605 6.605 0 014.684-1.937c1.696 0 3.393.646 4.685 1.937a6.632 6.632 0 010 9.368z"/><path d="M40.05 23.925a2.813 2.813 0 01-3.977 0 2.816 2.816 0 010-3.977 2.815 2.815 0 013.977 0 .999.999 0 101.414-1.414 4.817 4.817 0 00-6.805 0 4.817 4.817 0 000 6.805 4.798 4.798 0 003.403 1.407 4.792 4.792 0 003.402-1.407.999.999 0 10-1.414-1.414z"/></g><defs><clipPath id="clip0"><path fill="#fff" d="M0 0h60v60H0z"/></clipPath></defs></svg>