<svg width="21" height="20" fill="none" xmlns="http://www.w3.org/2000/svg"><path d="M10.609 1.833c2.666 0 3 0 4.083.084 2.75.083 4 1.416 4.083 4.083.084 1.083.084 1.333.084 4s0 3-.084 4c-.083 2.667-1.416 4-4.083 4.083-1.083.084-1.333.084-4.083.084-2.667 0-3 0-4-.084-2.75-.083-4-1.416-4.084-4.083-.083-1.083-.083-1.333-.083-4s0-3 .083-4C2.61 3.333 3.942 2 6.61 1.917c1-.084 1.333-.084 4-.084zm0-1.833c-2.75 0-3.084 0-4.084.083C2.86.25.86 2.25.692 5.917.609 6.917.609 7.25.609 10s0 3.083.083 4.083c.167 3.667 2.167 5.667 5.833 5.834C7.525 20 7.86 20 10.61 20s3.083 0 4.083-.083c3.667-.167 5.667-2.167 5.833-5.834.084-1 .084-1.333.084-4.083s0-3.083-.084-4.083C20.36 2.25 18.36.25 14.692.083 13.692 0 13.359 0 10.609 0zm0 4.833c-2.834 0-5.167 2.334-5.167 5.167 0 2.833 2.333 5.167 5.167 5.167 2.833 0 5.166-2.334 5.166-5.167 0-2.833-2.333-5.167-5.166-5.167zm0 8.5A3.343 3.343 0 017.275 10c0-1.833 1.5-3.333 3.334-3.333 1.833 0 3.333 1.5 3.333 3.333 0 1.833-1.5 3.333-3.333 3.333zM15.942 3.5c-.667 0-1.167.5-1.167 1.167 0 .666.5 1.166 1.167 1.166s1.167-.5 1.167-1.166c0-.667-.5-1.167-1.167-1.167z" fill="#8794BA"/></svg>