<svg width="139" height="30" fill="none" xmlns="http://www.w3.org/2000/svg"><path d="M27.381 6.53A14.982 14.982 0 0015 0C6.716 0 0 6.716 0 15c0 1.205.142 2.377.41 3.5l7.64-7.638a1.875 1.875 0 012.65 0l6.175 6.174L27.381 6.53z" fill="#8794BA"/><path d="M29.164 10.05L18.201 21.013a1.875 1.875 0 01-2.652 0L9.375 14.84l-7.474 7.475C4.467 26.9 9.37 30 15 30c8.284 0 15-6.716 15-15 0-1.735-.294-3.4-.836-4.95zm17.942 8.742h-3.904L42.52 21h-3.044L43.81 9.18h2.68L50.856 21h-3.06l-.69-2.208zm-3.222-2.2h2.54l-1.274-4.1-1.266 4.1zM61.596 21h-2.833l-4.188-7.355V21h-2.85V9.18h2.85l4.18 7.355V9.181h2.841V21zm8.662-2.208h-3.905L65.671 21h-3.044l4.335-11.82h2.679L74.008 21h-3.06l-.69-2.208zm-3.223-2.2h2.541l-1.274-4.1-1.267 4.1zm10.691 2.216h4.96V21h-7.81V9.18h2.85v9.628zm8.215-4.497l2.176-5.13h3.076l-3.807 7.574V21h-2.89v-4.245L80.697 9.18h3.06l2.184 5.13zm15.538-2.931h-3.548V21h-2.85v-9.62H91.6v-2.2h9.88v2.2zm4.245 9.62h-2.841V9.18h2.841V21zm11.543-4.002c-.037.823-.259 1.55-.665 2.184-.406.628-.977 1.115-1.713 1.46-.731.347-1.567.52-2.508.52-1.554 0-2.777-.506-3.67-1.518-.893-1.012-1.339-2.44-1.339-4.286v-.584c0-1.158.2-2.17.601-3.036.406-.871.987-1.543 1.745-2.013.758-.477 1.634-.715 2.63-.715 1.434 0 2.587.38 3.458 1.137.872.752 1.367 1.791 1.486 3.117h-2.841c-.022-.72-.203-1.237-.544-1.55-.341-.314-.861-.471-1.559-.471-.709 0-1.228.265-1.559.795-.33.53-.503 1.377-.519 2.541v.836c0 1.261.157 2.162.471 2.703.319.542.866.812 1.64.812.654 0 1.155-.154 1.501-.463.347-.308.531-.798.552-1.469h2.833zm7.444.86c0-.416-.149-.74-.446-.974-.292-.232-.809-.473-1.551-.722a14.94 14.94 0 01-1.818-.722c-1.532-.753-2.297-1.786-2.297-3.101 0-.655.189-1.232.568-1.73.384-.503.925-.893 1.623-1.169.699-.28 1.483-.422 2.355-.422.849 0 1.61.152 2.281.455.676.303 1.201.736 1.574 1.299.374.557.561 1.196.561 1.916h-2.842c0-.482-.148-.856-.446-1.12-.292-.266-.69-.398-1.193-.398-.509 0-.912.113-1.21.34-.292.222-.438.507-.438.853 0 .303.162.579.487.828.325.243.895.498 1.713.763.817.26 1.488.541 2.013.844 1.277.736 1.916 1.75 1.916 3.044 0 1.034-.39 1.846-1.169 2.436-.78.59-1.848.884-3.207.884-.958 0-1.826-.17-2.606-.511-.773-.346-1.358-.817-1.753-1.413-.39-.6-.584-1.29-.584-2.07h2.857c0 .634.162 1.102.487 1.405.33.297.863.446 1.599.446.471 0 .842-.1 1.112-.3.276-.206.414-.492.414-.86z" fill="#8794BA"/></svg>