<svg width="25" height="20" fill="none" xmlns="http://www.w3.org/2000/svg"><path d="M7.74 20c9.286 0 14.365-7.694 14.365-14.365 0-.219-.005-.436-.015-.653a10.273 10.273 0 002.519-2.614 10.07 10.07 0 01-2.9.794A5.067 5.067 0 0023.93.37a10.12 10.12 0 01-3.205 1.226A5.05 5.05 0 0012.119 6.2 14.334 14.334 0 011.713.926a5.03 5.03 0 00-.684 2.537c0 1.752.891 3.298 2.247 4.203a5.013 5.013 0 01-2.287-.632l-.001.065a5.05 5.05 0 004.05 4.95 5.053 5.053 0 01-2.28.086 5.055 5.055 0 004.717 3.507 10.13 10.13 0 01-6.27 2.161c-.408 0-.81-.023-1.205-.07A14.293 14.293 0 007.74 20z" fill="#8794BA"/></svg>